# xmcd
#
# Track frame offsets:
#	150
#	11949
#	25302
#	44268
#	57259
#	74967
#	89289
#	106970
#	124493
#	139016
#	153896
#	171216
#
# Disc length: 2560 seconds
#
# Revision: 1
# Processed by: cddbd v1.5.2PL0 Copyright (c) Steve Scherf et al.
# Submitted via: audiograbber 1.82.01
#
DISCID=ab09fe0c
DTITLE=Kathy Coleman - Waitin' On  A Good Man
DYEAR=2009
DGENRE=Country
TTITLE0=Waitin' On A Good Man
TTITLE1=Touch Me Like You Used To
TTITLE2=Just Friends
TTITLE3=Little Piece Of Heaven
TTITLE4=I Can't See You Anymore
TTITLE5=I'm So Glad He's Mine
TTITLE6=The Old Man's Money
TTITLE7=It's Been A While
TTITLE8=I Couldn't Help Myself
TTITLE9=You Should've Said
TTITLE10=Talk To Me
TTITLE11=One Piece At A Time
EXTD=
EXTT0=
EXTT1=
EXTT2=
EXTT3=
EXTT4=
EXTT5=
EXTT6=
EXTT7=
EXTT8=
EXTT9=
EXTT10=
EXTT11=
PLAYORDER=
